<svg width="24" height="25" viewBox="0 0 24 25" fill="none" xmlns="http://www.w3.org/2000/svg">
<path fill-rule="evenodd" clip-rule="evenodd" d="M15.663 4.03355C13.8902 3.24365 11.9096 3.04797 10.0166 3.47568C8.12351 3.90339 6.41942 4.93158 5.15845 6.40691C3.89749 7.88224 3.14721 9.72566 3.01951 11.6622C2.89181 13.5988 3.39354 15.5248 4.44987 17.1529C5.50619 18.781 7.06051 20.0241 8.88102 20.6967C10.7015 21.3693 12.6907 21.4353 14.5518 20.8851C16.413 20.3348 18.0464 19.1976 19.2084 17.6432C20.3705 16.0888 20.9989 14.2003 21 12.2595V11.3401C21 10.7878 21.4477 10.3401 22 10.3401C22.5523 10.3401 23 10.7878 23 11.3401V12.2601C22.9986 14.6322 22.2306 16.9408 20.8103 18.8407C19.39 20.7406 17.3936 22.1304 15.1189 22.803C12.8442 23.4755 10.413 23.3948 8.18792 22.5727C5.96285 21.7507 4.06312 20.2314 2.77206 18.2415C1.48099 16.2515 0.86777 13.8976 1.02384 11.5306C1.17992 9.16371 2.09693 6.91065 3.63811 5.10747C5.17929 3.30429 7.26206 2.04761 9.57581 1.52485C11.8896 1.00209 14.3103 1.24126 16.477 2.20669C16.9815 2.43147 17.2082 3.02265 16.9834 3.52712C16.7587 4.03159 16.1675 4.25833 15.663 4.03355Z" fill="white"/>
<path fill-rule="evenodd" clip-rule="evenodd" d="M22.7068 3.55279C23.0975 3.94312 23.0978 4.57629 22.7075 4.96701L12.7075 14.977C12.52 15.1647 12.2656 15.2702 12.0002 15.2703C11.7349 15.2703 11.4805 15.165 11.2929 14.9774L8.29289 11.9774C7.90237 11.5868 7.90237 10.9537 8.29289 10.5631C8.68342 10.1726 9.31658 10.1726 9.70711 10.5631L11.9996 12.8557L21.2925 3.5535C21.6829 3.16278 22.316 3.16246 22.7068 3.55279Z" fill="white"/>
</svg>
