<svg width="56" height="56" viewBox="0 0 56 56" fill="none" xmlns="http://www.w3.org/2000/svg">
<g clip-path="url(#clip0_44_4900)">
<rect width="56" height="56" rx="12" fill="#238DEF"/>
<path d="M18.9776 16.8662L38.6404 26.361C39.1524 26.605 39.8358 26.7325 40.5121 26.7325C41.1885 26.7325 41.8718 26.605 42.3828 26.361L62.0457 16.8662C63.0796 16.3682 63.0796 15.5534 62.0457 15.0533L42.3828 5.55855C41.8718 5.31451 41.1875 5.18701 40.5121 5.18701C39.8368 5.18701 39.1524 5.31451 38.6404 5.55855L18.9776 15.0533C17.9436 15.5534 17.9436 16.3662 18.9776 16.8662Z" fill="white"/>
<path d="M62.0457 26.5933C62.0457 26.5933 58.4548 24.8621 57.9787 24.629C57.5025 24.396 57.374 24.4089 56.874 24.641C56.374 24.8731 42.3709 31.6366 42.3709 31.6366C41.7806 31.8914 41.1431 32.0184 40.5002 32.0091C39.8259 32.0091 39.1405 31.8806 38.6296 31.6366C38.6296 31.6366 24.998 25.0623 24.3585 24.7456C23.6662 24.4119 23.467 24.4119 22.8365 24.7107L18.9517 26.5814C17.9178 27.0794 17.9178 27.8952 18.9517 28.3943L38.6176 37.889C39.1286 38.1331 39.8129 38.2606 40.4883 38.2606C41.1636 38.2606 41.8479 38.1331 42.3599 37.889L62.0228 28.3963C63.0797 27.9062 63.0797 27.0934 62.0457 26.5933Z" fill="white"/>
<path d="M62.0454 38.1336C62.0454 38.1336 58.4545 36.4024 57.9784 36.1663C57.5022 35.9302 57.3737 35.9462 56.8737 36.1783C56.3736 36.4104 42.3825 43.1888 42.3825 43.1888C41.7922 43.4432 41.1546 43.5698 40.5118 43.5603C39.8375 43.5603 39.1522 43.4328 38.6402 43.1888C38.6402 43.1888 25.0086 36.6146 24.3701 36.2978C23.6729 35.9601 23.4737 35.9601 22.8471 36.2629L18.9624 38.1336C17.9274 38.6317 17.9274 39.4465 18.9624 39.9465L38.6252 49.4413C39.1362 49.6963 39.8206 49.8128 40.4959 49.8128C41.1713 49.8128 41.8556 49.6853 42.3666 49.4413L62.0335 39.9515C63.0794 39.4465 63.0793 38.6336 62.0454 38.1336Z" fill="white"/>
</g>
<defs>
<clipPath id="clip0_44_4900">
<rect width="56" height="56" rx="12" fill="white"/>
</clipPath>
</defs>
</svg>
