<svg width="61" height="30" viewBox="0 0 61 30" fill="none" xmlns="http://www.w3.org/2000/svg">
<path d="M27.8359 15.0735C27.8346 13.5805 28.1729 12.1069 28.8253 10.764C29.4776 9.42117 30.4269 8.24434 31.6014 7.32262C30.147 6.17947 28.4004 5.46856 26.5611 5.27115C24.7218 5.07374 22.8641 5.39778 21.2003 6.20626C19.5365 7.01474 18.1337 8.27502 17.1523 9.84306C16.1708 11.4111 15.6504 13.2236 15.6504 15.0735C15.6504 16.9233 16.1708 18.7358 17.1523 20.3039C18.1337 21.8719 19.5365 23.1322 21.2003 23.9407C22.8641 24.7492 24.7218 25.0732 26.5611 24.8758C28.4004 24.6784 30.147 23.9675 31.6014 22.8243C30.427 21.9026 29.4776 20.7258 28.8253 19.3829C28.1729 18.0401 27.8346 16.5664 27.8359 15.0735Z" fill="white"/>
<path d="M47.5521 15.0735C47.5522 16.9233 47.0318 18.7358 46.0505 20.3038C45.0691 21.8719 43.6663 23.1322 42.0026 23.9406C40.3388 24.7491 38.4811 25.0732 36.6418 24.8758C34.8026 24.6784 33.0557 23.9675 31.6014 22.8243C32.7747 21.9017 33.7236 20.7246 34.3759 19.382C35.0281 18.0394 35.3671 16.5662 35.3671 15.0735C35.3671 13.5808 35.0281 12.1076 34.3759 10.7649C33.7236 9.42229 32.7747 8.24528 31.6014 7.32262C33.0557 6.17947 34.8026 5.46856 36.6418 5.27115C38.4811 5.07374 40.3388 5.3978 42.0026 6.20628C43.6663 7.01477 45.0691 8.27505 46.0505 9.84309C47.0318 11.4111 47.5522 13.2236 47.5521 15.0735Z" fill="white"/>
<path fill-rule="evenodd" clip-rule="evenodd" d="M27.8359 15.0735C27.8346 13.5805 28.1729 12.1069 28.8253 10.764C29.4776 9.42117 30.4269 8.24434 31.6014 7.32262C32.7747 8.24528 33.7236 9.42229 34.3759 10.7649C35.0281 12.1076 35.3671 13.5808 35.3671 15.0735C35.3671 16.5662 35.0281 18.0394 34.3759 19.382C33.7236 20.7246 32.7747 21.9017 31.6014 22.8243C30.427 21.9026 29.4776 20.7258 28.8253 19.3829C28.1729 18.0401 27.8346 16.5664 27.8359 15.0735ZM31.6014 7.32262L35.9148 7.32263V22.8243H27.2885V7.32263L31.6014 7.32262Z" fill="white"/>
<path d="M46.6115 21.1834V20.8661H46.7395V20.8014H46.4136V20.8661H46.5416V21.1834H46.6115ZM47.2442 21.1834V20.8008H47.1443L47.0294 21.064L46.9145 20.8008H46.8145V21.1834H46.8851V20.8948L46.9928 21.1436H47.066L47.1738 20.8942V21.1834H47.2442Z" fill="white"/>
</svg>
