<svg width="61" height="31" viewBox="0 0 61 31" fill="none" xmlns="http://www.w3.org/2000/svg">
<path d="M37.862 11.3017V18.6774C37.862 18.7881 37.7718 18.8778 37.6606 18.8778H36.1462C36.035 18.8778 35.9447 18.7881 35.9447 18.6774V11.3017C35.9447 11.1909 36.035 11.1012 36.1462 11.1012H37.6606C37.7718 11.1012 37.862 11.1909 37.862 11.3017ZM49.6619 11.1012H47.9675C47.8789 11.1012 47.8007 11.1584 47.7749 11.242L46.4342 15.6008L44.9606 11.2372C44.9332 11.156 44.8562 11.1012 44.7694 11.1012H43.5871C43.5004 11.1012 43.4233 11.156 43.3959 11.2372L41.9223 15.6008L40.5816 11.242C40.5558 11.1584 40.4776 11.1012 40.389 11.1012H38.6946C38.6299 11.1012 38.569 11.132 38.5312 11.1838C38.4933 11.2356 38.483 11.3023 38.5036 11.3629L40.9921 18.7427C41.0196 18.8238 41.0966 18.8786 41.1833 18.8786H42.5281C42.6148 18.8786 42.6917 18.8238 42.7193 18.7427L44.1783 14.4312L45.6374 18.7427C45.6648 18.8238 45.7419 18.8786 45.8284 18.8786H47.1732C47.2599 18.8786 47.3368 18.8238 47.3642 18.7427L49.8528 11.3629C49.8733 11.3023 49.8631 11.2356 49.8252 11.1838C49.7875 11.132 49.7266 11.1012 49.6619 11.1012ZM52.2102 11.1012H50.6958C50.5846 11.1012 50.4944 11.1909 50.4944 11.3017V18.6774C50.4944 18.7881 50.5846 18.8778 50.6958 18.8778H52.2102C52.3214 18.8778 52.4116 18.7881 52.4116 18.6774V11.3017C52.4116 11.1909 52.3214 11.1012 52.2102 11.1012ZM35.0684 18.6249C35.1566 18.7221 35.0843 18.8786 34.9512 18.8786H33.0955C33.02 18.8786 32.9484 18.8451 32.9001 18.7873L32.5856 18.4108C31.945 18.8243 31.1822 19.0653 30.3636 19.0653C28.1048 19.0653 26.2672 17.2369 26.2672 14.9894C26.2672 12.742 28.1048 10.9136 30.3636 10.9136C32.6224 10.9136 34.46 12.742 34.46 14.9894C34.46 15.7996 34.2203 16.5546 33.809 17.1899L35.0684 18.6249ZM31.3907 16.981L30.5781 16.0083C30.4928 15.9063 30.5658 15.7517 30.6991 15.7517H32.3995C32.4805 15.5119 32.5263 15.2557 32.5263 14.9896C32.5263 13.7711 31.6148 12.7205 30.3637 12.7205C29.1127 12.7205 28.2012 13.7709 28.2012 14.9896C28.2012 16.208 29.1127 17.2438 30.3637 17.2438C30.7427 17.2438 31.0898 17.1474 31.3907 16.981ZM21.6178 18.5875C21.6639 18.8949 21.5663 19.0222 21.4682 19.0222C21.3612 19.0222 21.227 18.8975 21.0685 18.6517C20.9123 18.4091 20.855 18.1306 20.9325 17.9897C20.9837 17.8966 21.0908 17.8561 21.2259 17.9069C21.4875 18.0053 21.5902 18.4038 21.6178 18.5875ZM20.1705 19.2577C20.484 19.5214 20.5795 19.8352 20.4136 20.0565C20.3213 20.1778 20.1718 20.2448 19.9927 20.2448C19.8166 20.2448 19.6373 20.18 19.5129 20.0719C19.2277 19.8239 19.1439 19.4219 19.3302 19.1934C19.403 19.1041 19.5211 19.055 19.6628 19.055C19.8349 19.0548 20.0152 19.1269 20.1705 19.2577ZM19.6457 21.8045C20.9968 21.8045 22.4629 22.2655 24.0855 23.6961C24.2481 23.8395 24.4645 23.6614 24.3228 23.4834C22.728 21.4802 21.2531 21.0986 19.7823 20.7761C17.9831 20.3817 17.0576 19.3743 16.4127 18.2684C16.2843 18.0484 16.2268 18.0871 16.2152 18.37C16.2011 18.7158 16.225 19.1736 16.3029 19.6239C16.2305 19.6273 16.1573 19.6264 16.0839 19.6264C13.5099 19.6264 11.4232 17.5503 11.4232 14.9893C11.4232 12.4282 13.5098 10.352 16.0839 10.352C18.6578 10.352 20.7444 12.4281 20.7444 14.9893C20.7444 15.1715 20.7355 15.3516 20.7149 15.5284C20.3744 15.4674 19.7047 15.4605 19.2347 15.5009C19.0579 15.5161 19.0829 15.598 19.2165 15.6221C20.7572 15.8992 21.8157 16.849 22.0577 18.573C22.0632 18.6126 22.1153 18.6246 22.136 18.5903C22.77 17.5376 23.1341 16.3059 23.1341 14.9894C23.1341 11.1152 19.9775 7.97461 16.0839 7.97461C12.1901 7.97461 9.03369 11.1153 9.03369 14.9894C9.03369 18.8635 12.1902 22.0047 16.0839 22.0047C17.1171 22.0044 18.1417 21.8045 19.6457 21.8045Z" fill="white"/>
</svg>
