<svg width="61" height="31" viewBox="0 0 61 31" fill="none" xmlns="http://www.w3.org/2000/svg">
<path d="M7.49854 19.139C5.52359 12.3598 10.1635 5.43578 17.0363 4.84401C17.3369 4.81818 17.8023 4.80527 18.4324 4.80527C26.0983 4.80193 33.7639 4.80097 41.4292 4.8024C45.6399 4.80312 49.5493 7.23834 51.3529 11.2043C54.5296 18.1914 50.0722 26.2883 42.5765 27.0586C42.246 27.0926 41.7807 27.1096 41.1804 27.1096C33.5788 27.111 25.9773 27.1115 18.3758 27.111C17.7671 27.111 17.3015 27.0959 16.979 27.0658C12.5285 26.6519 8.77999 23.5403 7.49854 19.139ZM8.00399 15.0734C7.52231 20.6016 11.4939 25.4906 16.8231 26.1025C17.1582 26.1412 17.6236 26.1606 18.2192 26.1606C25.9312 26.1615 33.6429 26.1611 41.3544 26.1592C41.9403 26.1592 42.4054 26.1367 42.7498 26.0917C48.1553 25.3852 52.066 20.311 51.4089 14.7556C50.8454 9.99204 47.1632 6.32881 42.5282 5.80877C42.1917 5.77099 41.7266 5.7521 41.1328 5.7521C33.4786 5.75306 25.8247 5.75378 18.171 5.75425C17.5777 5.75473 17.1125 5.77553 16.7756 5.81666C12.0832 6.3905 8.42415 10.2517 8.00399 15.0734Z" fill="white"/>
<path d="M16.9791 22.0208C14.219 21.6019 12.1161 19.2341 11.9225 16.3865C11.5604 11.0792 17.5195 7.85065 21.6001 11.1531C21.6058 11.1576 21.6103 11.1635 21.6134 11.1701C21.6164 11.1768 21.618 11.1841 21.6178 11.1915C21.6177 11.1989 21.6159 11.2063 21.6126 11.2129C21.6093 11.2195 21.6045 11.2253 21.5987 11.2298L20.5018 12.059C20.4934 12.0654 20.4832 12.0689 20.4728 12.0693C20.4623 12.0697 20.452 12.0669 20.4431 12.0612C19.2444 11.2765 17.9911 11.0653 16.6834 11.4278C14.4749 12.0397 13.0809 14.2195 13.3305 16.5091C13.7045 19.9414 17.5411 21.7726 20.3431 19.9041C21.7092 18.9926 22.4213 17.6386 22.4796 15.842C22.48 15.8311 22.4829 15.8204 22.488 15.8107C22.493 15.801 22.5002 15.7926 22.5089 15.7861L23.7142 14.8723C23.7192 14.8686 23.725 14.8663 23.7311 14.8655C23.7371 14.8648 23.7433 14.8655 23.749 14.8678C23.7546 14.8701 23.7596 14.8738 23.7634 14.8786C23.7672 14.8834 23.7698 14.8891 23.7708 14.8952C24.4678 19.0562 21.0073 22.6327 16.9791 22.0208Z" fill="white"/>
<path d="M29.7892 17.1938V19.6154C29.7892 19.6249 29.7855 19.6341 29.779 19.6408C29.7724 19.6475 29.7635 19.6513 29.7543 19.6513H28.426C28.391 19.6513 28.3735 19.6334 28.3735 19.5975V11.6549C28.3735 11.6456 28.3771 11.6366 28.3836 11.63C28.39 11.6234 28.3987 11.6197 28.4078 11.6197C29.3231 11.6169 30.2436 11.6147 31.1692 11.6133C32.9897 11.6104 34.6472 12.3134 34.5095 14.5147C34.3403 17.2118 31.7865 17.1996 29.8319 17.1508C29.8034 17.1503 29.7892 17.1647 29.7892 17.1938ZM32.7471 15.2622C33.2281 14.5757 33.1721 13.4015 32.2696 13.1081C31.5635 12.8786 30.6764 12.9245 29.8179 12.9532C29.7988 12.9542 29.7892 12.9644 29.7892 12.984V15.7772C29.7892 15.8016 29.8011 15.814 29.8249 15.8145C30.5736 15.8195 32.2388 15.9888 32.7471 15.2622Z" fill="white"/>
<path d="M17.8571 15.7567C17.8636 15.7607 17.871 15.7627 17.8784 15.7624C17.8859 15.7622 17.8931 15.7597 17.8991 15.7553L22.5691 12.2226C22.5928 12.2044 22.6138 12.2075 22.632 12.2319C22.9004 12.5949 23.1286 12.9829 23.3164 13.3961C23.328 13.4214 23.3229 13.4422 23.301 13.4585L17.918 17.5298C17.9068 17.5381 17.8935 17.5428 17.8798 17.5433C17.8661 17.5438 17.8526 17.5401 17.8411 17.5327L15.6291 16.1082C15.6195 16.102 15.6115 16.0935 15.606 16.0833C15.6005 16.0731 15.5976 16.0617 15.5977 16.0501V14.3608C15.5977 14.3211 15.6142 14.3118 15.6473 14.3329L17.8571 15.7567Z" fill="white"/>
<path d="M38.4296 18.7541C38.4295 18.749 38.4279 18.7441 38.4248 18.74C38.4218 18.7359 38.4176 18.733 38.4128 18.7317C38.4081 18.7304 38.4031 18.7307 38.3986 18.7327C38.3942 18.7347 38.3906 18.7382 38.3883 18.7426C37.6557 20.0983 35.2277 20.1643 34.8502 18.4794C34.6943 17.7829 34.8159 16.9982 35.4563 16.6051C36.1876 16.1568 37.4487 16.2737 38.3093 16.2809C38.3308 16.2814 38.3424 16.2706 38.3443 16.2486C38.4023 15.6755 38.2639 15.1303 37.6459 15.0206C36.7678 14.8635 35.7723 15.1368 35.2773 15.9552C35.274 15.9606 35.269 15.9647 35.2632 15.967C35.2574 15.9693 35.251 15.9696 35.2451 15.9679C35.2392 15.9662 35.234 15.9625 35.2303 15.9576C35.2267 15.9526 35.2248 15.9465 35.2249 15.9402V14.3621C35.2249 14.3447 35.2291 14.3276 35.2372 14.3123C35.2453 14.297 35.2569 14.2841 35.271 14.2746C36.0254 13.7761 37.1237 13.7158 37.9863 13.8414C39.0532 13.9956 39.6495 14.5909 39.6621 15.7293C39.6765 17.0238 39.6837 18.3127 39.6837 19.5962C39.6837 19.6109 39.6781 19.6249 39.668 19.6353C39.6579 19.6456 39.6442 19.6515 39.6299 19.6515H38.4652C38.4349 19.6515 38.42 19.6359 38.4205 19.6048L38.4296 18.7541ZM38.3058 17.1689C37.7941 17.1402 35.9338 16.9243 36.1428 17.9429C36.3553 18.9808 38.54 18.6121 38.3464 17.2076C38.3431 17.1832 38.3296 17.1703 38.3058 17.1689Z" fill="white"/>
<path d="M43.324 17.7485L44.5348 13.9439C44.5414 13.9234 44.5551 13.9131 44.5761 13.9131H45.9218C45.9251 13.9131 45.9283 13.9139 45.9312 13.9155C45.934 13.9171 45.9365 13.9193 45.9384 13.922C45.9402 13.9248 45.9414 13.9279 45.9418 13.9313C45.9422 13.9346 45.9418 13.9379 45.9407 13.9411C45.2057 16.0313 44.4698 18.1186 43.733 20.2031C43.4757 20.9304 43.101 21.7976 42.2928 21.9188C41.8804 21.9805 41.4949 21.9193 41.1365 21.7352C41.1197 21.7266 41.1056 21.7133 41.0957 21.697C41.0858 21.6806 41.0806 21.6618 41.0806 21.6427V20.4756C41.0806 20.4426 41.0941 20.4347 41.1211 20.452C41.9817 21 42.4187 20.5517 42.6466 19.6952C42.6526 19.6723 42.6512 19.65 42.6424 19.6285L40.32 13.9576C40.3079 13.9279 40.3176 13.9131 40.3493 13.9131H41.7482C41.7743 13.9131 41.7923 13.9255 41.8021 13.9504L43.282 17.7499C43.2974 17.7891 43.3114 17.7886 43.324 17.7485Z" fill="white"/>
</svg>
