<svg width="52" height="30" viewBox="0 0 52 30" fill="none" xmlns="http://www.w3.org/2000/svg">
<path d="M40.5586 12.2566V18.1067H42.5621V13.9798H44.4766V18.1067H46.4356V12.2566H40.5586ZM36.8187 11.9391H38.6441L39.5791 10.2158H36.6406C34.5035 10.2612 33.0788 12.1205 33.0788 14.4333C33.0788 17.1543 34.5925 18.2427 36.418 18.2427C38.2879 18.2427 39.6681 17.0183 39.6236 15.3403C39.5791 14.0252 38.5105 12.7554 37.0858 12.7554C36.2844 12.7554 35.5275 13.0275 35.0378 13.5263C35.0823 12.574 35.8837 11.9391 36.8187 11.9391ZM36.3289 14.2519C37.0413 14.2519 37.531 14.8415 37.531 15.5217C37.531 16.202 36.9968 16.7462 36.2844 16.7462C35.7501 16.7462 35.1268 16.2473 35.1268 15.5217C35.1268 14.8415 35.6611 14.2519 36.3289 14.2519ZM29.9176 13.7984C30.7636 13.7531 31.4759 14.2519 31.4759 14.2519L32.2328 12.8915C31.565 12.3926 30.8971 12.1205 30.0067 12.1205C28.0477 12.1205 26.6675 13.7531 26.6675 15.1589C26.6675 16.8369 28.1367 18.2427 29.9622 18.2427C30.7636 18.2427 31.565 17.9706 32.1883 17.4718L31.4759 16.0659C31.4759 16.0659 30.8081 16.5194 29.9176 16.5194C29.3389 16.5194 28.582 16.0206 28.582 15.1589C28.582 14.2973 29.3389 13.7984 29.9176 13.7984Z" fill="white"/>
<path d="M10.8622 15.1582L7.96824 16.8815L5.29688 21.6432L16.294 15.1582H10.8622Z" fill="white"/>
<path d="M19.188 10.2588L16.294 11.9821L13.5781 16.7438L24.5753 10.2588H19.188Z" fill="white"/>
<path d="M16.294 8.58105L13.5781 3.81934V26.4942L16.294 21.7325V8.58105Z" fill="white"/>
<path d="M13.5781 3.81934L16.294 8.58105L19.188 10.259H24.6198L13.5781 3.81934Z" fill="white"/>
<path d="M13.5781 13.5713V26.4959L16.294 21.7342V18.333L13.5781 13.5713Z" fill="white"/>
<path d="M19.188 20.0547L16.294 21.7326L13.5781 26.4943L24.5753 20.0547H19.188Z" fill="white"/>
<path d="M5.29688 8.71875V21.6434L8.01277 16.8817V13.4351L5.29688 8.71875Z" fill="white"/>
<path d="M13.5781 13.5712L5.29688 8.71875L8.01277 13.4351L19.188 20.0562H24.6198L13.5781 13.5712Z" fill="white"/>
</svg>
