<svg width="24" height="25" viewBox="0 0 24 25" fill="none" xmlns="http://www.w3.org/2000/svg">
<path fill-rule="evenodd" clip-rule="evenodd" d="M11 4.28516C7.13401 4.28516 4 7.41916 4 11.2852C4 15.1511 7.13401 18.2852 11 18.2852C14.866 18.2852 18 15.1511 18 11.2852C18 7.41916 14.866 4.28516 11 4.28516ZM2 11.2852C2 6.31459 6.02944 2.28516 11 2.28516C15.9706 2.28516 20 6.31459 20 11.2852C20 16.2557 15.9706 20.2852 11 20.2852C6.02944 20.2852 2 16.2557 2 11.2852Z" fill="#202223"/>
<path fill-rule="evenodd" clip-rule="evenodd" d="M15.9428 16.2284C16.3333 15.8379 16.9665 15.8379 17.357 16.2284L21.707 20.5784C22.0975 20.969 22.0975 21.6021 21.707 21.9927C21.3165 22.3832 20.6833 22.3832 20.2928 21.9927L15.9428 17.6427C15.5523 17.2521 15.5523 16.619 15.9428 16.2284Z" fill="#202223"/>
</svg>
