<svg width="24" height="25" viewBox="0 0 24 25" fill="none" xmlns="http://www.w3.org/2000/svg">
<path fill-rule="evenodd" clip-rule="evenodd" d="M15.663 4.73325C13.8902 3.94336 11.9096 3.74767 10.0166 4.17539C8.12351 4.6031 6.41942 5.63129 5.15845 7.10662C3.89749 8.58195 3.14721 10.4254 3.01951 12.3619C2.89181 14.2985 3.39354 16.2245 4.44987 17.8526C5.50619 19.4807 7.06051 20.7238 8.88102 21.3964C10.7015 22.069 12.6907 22.135 14.5518 21.5848C16.413 21.0345 18.0464 19.8973 19.2084 18.3429C20.3705 16.7885 20.9989 14.9 21 12.9593V12.0398C21 11.4875 21.4477 11.0398 22 11.0398C22.5523 11.0398 23 11.4875 23 12.0398V12.9598C22.9986 15.3319 22.2306 17.6405 20.8103 19.5404C19.39 21.4403 17.3936 22.8301 15.1189 23.5027C12.8442 24.1753 10.413 24.0945 8.18792 23.2724C5.96285 22.4504 4.06312 20.9311 2.77206 18.9412C1.48099 16.9512 0.86777 14.5973 1.02384 12.2303C1.17992 9.86342 2.09693 7.61036 3.63811 5.80718C5.17929 4.004 7.26206 2.74732 9.57581 2.22456C11.8896 1.7018 14.3103 1.94097 16.477 2.9064C16.9815 3.13118 17.2082 3.72235 16.9834 4.22683C16.7587 4.7313 16.1675 4.95803 15.663 4.73325Z" fill="#238DEF"/>
<path fill-rule="evenodd" clip-rule="evenodd" d="M22.7068 4.2525C23.0975 4.64283 23.0978 5.27599 22.7075 5.66671L12.7075 15.6767C12.52 15.8644 12.2656 15.9699 12.0002 15.97C11.7349 15.97 11.4805 15.8647 11.2929 15.6771L8.29289 12.6771C7.90237 12.2865 7.90237 11.6534 8.29289 11.2629C8.68342 10.8723 9.31658 10.8723 9.70711 11.2629L11.9996 13.5554L21.2925 4.25321C21.6829 3.86249 22.316 3.86217 22.7068 4.2525Z" fill="#238DEF"/>
</svg>
