<svg width="61" height="30" viewBox="0 0 61 30" fill="none" xmlns="http://www.w3.org/2000/svg">
<path fill-rule="evenodd" clip-rule="evenodd" d="M46.1142 9.37012H38.4536C38.8655 11.9897 41.3366 14.4403 44.0549 14.4403H50.1505C50.2328 14.1868 50.2328 13.8487 50.2328 13.5952C50.2328 11.2292 48.4207 9.37012 46.1142 9.37012Z" fill="white"/>
<path fill-rule="evenodd" clip-rule="evenodd" d="M39.1128 14.8623V21.2H42.8195V17.8199H46.1144C47.9266 17.8199 49.4917 16.5524 49.9859 14.8623H39.1128Z" fill="white"/>
<path fill-rule="evenodd" clip-rule="evenodd" d="M25.9336 9.37012V21.2005H29.2285C29.2285 21.2005 30.0522 21.2005 30.4641 20.3554C32.6881 15.7923 33.3471 14.4403 33.3471 14.4403H33.759V21.2005H37.4657V9.37012H34.1708C34.1708 9.37012 33.3471 9.45462 32.9352 10.2151C31.0407 14.1023 30.0522 16.1303 30.0522 16.1303H29.6403V9.37012H25.9336Z" fill="white"/>
<path fill-rule="evenodd" clip-rule="evenodd" d="M10.2827 21.2005V9.37012H13.9895C13.9895 9.37012 15.0603 9.37012 15.6369 11.0602C17.1196 15.5388 17.2844 16.1303 17.2844 16.1303C17.2844 16.1303 17.6138 15.0318 18.9318 11.0602C19.5084 9.37012 20.5792 9.37012 20.5792 9.37012H24.286V21.2005H20.5792V14.8628H20.1674L18.1081 21.2005H16.4606L14.4013 14.8628H13.9895V21.2005H10.2827Z" fill="white"/>
</svg>
