<svg width="56" height="57" viewBox="0 0 56 57" fill="none" xmlns="http://www.w3.org/2000/svg">
<g clip-path="url(#clip0_387_1809)">
<rect y="0.959961" width="56" height="56" rx="12" fill="white"/>
<path d="M18.9776 17.8267L38.6405 27.3214C39.1525 27.5655 39.8358 27.693 40.5122 27.693C41.1885 27.693 41.8718 27.5655 42.3828 27.3214L62.0457 17.8267C63.0797 17.3286 63.0797 16.5138 62.0457 16.0138L42.3828 6.519C41.8718 6.27496 41.1875 6.14746 40.5122 6.14746C39.8368 6.14746 39.1525 6.27496 38.6405 6.519L18.9776 16.0138C17.9437 16.5138 17.9437 17.3266 18.9776 17.8267Z" fill="#238DEF"/>
<path d="M62.0457 27.5528C62.0457 27.5528 58.4548 25.8216 57.9787 25.5885C57.5025 25.3554 57.3741 25.3684 56.874 25.6005C56.374 25.8326 42.3709 32.596 42.3709 32.596C41.7806 32.8509 41.1431 32.9779 40.5002 32.9686C39.8259 32.9686 39.1406 32.8401 38.6296 32.596C38.6296 32.596 24.998 26.0218 24.3585 25.7051C23.6662 25.3714 23.467 25.3714 22.8365 25.6702L18.9517 27.5409C17.9178 28.0389 17.9178 28.8547 18.9517 29.3537L38.6176 38.8485C39.1286 39.0926 39.8129 39.2201 40.4883 39.2201C41.1636 39.2201 41.8479 39.0926 42.3599 38.8485L62.0228 29.3557C63.0797 28.8657 63.0797 28.0528 62.0457 27.5528Z" fill="#238DEF"/>
<path d="M62.0453 39.0941C62.0453 39.0941 58.4544 37.3628 57.9782 37.1268C57.5021 36.8907 57.3736 36.9066 56.8736 37.1387C56.3735 37.3708 42.3824 44.1492 42.3824 44.1492C41.792 44.4037 41.1545 44.5303 40.5117 44.5208C39.8374 44.5208 39.1521 44.3933 38.6401 44.1492C38.6401 44.1492 25.0085 37.575 24.37 37.2583C23.6728 36.9206 23.4736 36.9206 22.847 37.2234L18.9622 39.0941C17.9273 39.5921 17.9273 40.4069 18.9622 40.9069L38.6251 50.4017C39.1361 50.6567 39.8204 50.7733 40.4958 50.7733C41.1712 50.7733 41.8555 50.6458 42.3665 50.4017L62.0333 40.9119C63.0792 40.4069 63.0792 39.5941 62.0453 39.0941Z" fill="#238DEF"/>
</g>
<defs>
<clipPath id="clip0_387_1809">
<rect y="0.959961" width="56" height="56" rx="12" fill="white"/>
</clipPath>
</defs>
</svg>
