<svg width="61" height="30" viewBox="0 0 61 30" fill="none" xmlns="http://www.w3.org/2000/svg">
<path d="M24.7471 7.39806L18.1542 22.7805H13.8541L10.5903 10.5017C10.5619 10.215 10.4584 9.94023 10.2897 9.70404C10.1211 9.46785 9.89299 9.27817 9.6275 9.15331C8.36181 8.56746 7.02722 8.13604 5.65381 7.86878L5.75988 7.42199H12.6792C13.1358 7.42324 13.5768 7.58516 13.9214 7.87816C14.2659 8.17116 14.4912 8.57566 14.5559 9.01768L16.2612 17.8658L20.496 7.39806H24.7471ZM41.5965 17.77C41.5965 13.709 35.8848 13.4936 35.8848 11.6745C35.8848 11.124 36.4315 10.5336 37.6065 10.39C38.9836 10.2569 40.3717 10.4941 41.621 11.0761L42.3309 7.81293C41.1142 7.36968 39.8269 7.1401 38.5285 7.13477C34.5059 7.13477 31.6745 9.22512 31.6501 12.217C31.6501 14.4271 33.6736 15.6637 35.2158 16.4057C36.7579 17.1477 37.3291 17.6344 37.3209 18.3126C37.3209 19.3498 36.0562 19.7966 34.8731 19.8205C33.4182 19.8517 31.9796 19.5165 30.6954 18.8471L29.9529 22.214C31.3982 22.7542 32.9342 23.0249 34.4814 23.0119C38.757 23.0119 41.5557 20.9455 41.5639 17.7461L41.5965 17.77ZM52.1713 22.7725H55.9328L52.669 7.39008H49.2257C48.8545 7.38757 48.4909 7.49324 48.1814 7.6936C47.8718 7.89396 47.6303 8.17992 47.4877 8.51504L41.3844 22.7725H45.6355L46.4514 20.4747H51.6735L52.1713 22.7725ZM47.6264 17.3233L49.7724 11.5469L51.0044 17.3233H47.6264ZM30.4914 7.39008L27.1297 22.7725H23.0499L26.4198 7.39008H30.4914Z" fill="white"/>
</svg>
